<?xml version="1.0" encoding="utf-8"?><svg fill="#FFDC60" version="1.1" id="Layer_1" xmlns="http://www.w3.org/2000/svg" xmlns:xlink="http://www.w3.org/1999/xlink" x="0px" y="0px" viewBox="0 0 122.88 98.31" style="enable-background:new 0 0 122.88 98.31" xml:space="preserve"><style type="text/css">.st0{fill-rule:evenodd;clip-rule:evenodd;}</style><g><path class="st0" d="M8.32,0h106.24c4.58,0,8.32,3.74,8.32,8.32v81.68c0,4.58-3.74,8.32-8.32,8.32H8.32C3.74,98.31,0,94.57,0,89.99 V8.32C0,3.74,3.74,0,8.32,0L8.32,0z M80.35,67.81h3.29v-8.4c0-0.16-0.07-0.31-0.18-0.42c-0.11-0.11-0.26-0.18-0.42-0.18H63.46v9 h3.28c1.04,0,1.89,0.85,1.89,1.89v7.55c0,1.04-0.85,1.89-1.89,1.89l-10.67,0c-1.04,0-1.89-0.85-1.89-1.89V69.7 c0-1.04,0.85-1.89,1.89-1.89h3.28v-9H39.79c-0.16,0-0.31,0.07-0.42,0.18c-0.11,0.11-0.18,0.26-0.18,0.42v8.4h3.34 c1.04,0,1.89,0.85,1.89,1.89v7.55c0,1.04-0.85,1.89-1.89,1.89l-10.67,0c-1.04,0-1.89-0.85-1.89-1.89V69.7 c0-1.04,0.85-1.89,1.89-1.89h3.24v-8.4c0-1.29,0.53-2.46,1.38-3.31c0.85-0.85,2.02-1.37,3.31-1.37h19.58V42.65h-3.28 c-1.04,0-1.89-0.85-1.89-1.89v-7.55c0-1.04,0.85-1.89,1.89-1.89h10.67c1.04,0,1.89,0.85,1.89,1.89v7.55c0,1.04-0.85,1.89-1.89,1.89 h-3.28v12.07h19.58c1.29,0,2.46,0.53,3.31,1.37c0.85,0.85,1.38,2.02,1.38,3.31v8.4h3.29c1.04,0,1.89,0.85,1.89,1.89v7.55 c0,1.04-0.85,1.89-1.89,1.89l-10.67,0c-1.04,0-1.89-0.85-1.89-1.89V69.7C78.47,68.66,79.32,67.81,80.35,67.81L80.35,67.81 L80.35,67.81z M117.97,23.29H5.29v67.51c0,0.64,0.25,1.2,0.67,1.63c0.42,0.42,0.99,0.67,1.63,0.67h108.04 c0.64,0,1.2-0.25,1.63-0.67c0.43-0.43,0.67-0.99,0.67-1.63V23.29H117.97L117.97,23.29z M106.64,9.35c2.27,0,4.11,1.84,4.11,4.11 c0,2.27-1.84,4.11-4.11,4.11c-2.27,0-4.11-1.84-4.11-4.11C102.54,11.19,104.38,9.35,106.64,9.35L106.64,9.35z M78.8,9.35 c2.27,0,4.11,1.84,4.11,4.11c0,2.27-1.84,4.11-4.11,4.11c-2.27,0-4.11-1.84-4.11-4.11C74.69,11.19,76.53,9.35,78.8,9.35L78.8,9.35z M92.72,9.35c2.27,0,4.11,1.84,4.11,4.11c0,2.27-1.84,4.11-4.11,4.11c-2.27,0-4.11-1.84-4.11-4.11 C88.61,11.19,90.45,9.35,92.72,9.35L92.72,9.35z"/></g></svg>